# xmcd
#
# Track frame offsets:
#	150
#	14811
#	24623
#	38728
#	52894
#	67885
#	82720
#	96522
#	108563
#	124552
#	138221
#	154573
#	168708
#	182790
#	199885
#	216798
#	232032
#	241407
#	252409
#	264682
#
# Disc length: 3801 seconds
#
# Revision: 1
# Processed by: cddbd v1.5.2PL0 Copyright (c) Steve Scherf et al.
# Submitted via: audiograbber 1.83.01
#
DISCID=180ed714
DTITLE=Misty - Misty 2000
DYEAR=2000
DGENRE=Country
TTITLE0=Cheaters - Randy Corner and Karla Taylor
TTITLE1=Cowboy Cute, Cowgirl Crazy - Marion Randell
TTITLE2=If I Had Another Heart - Waylon Adams
TTITLE3=Our Love - Lori Mckinzie
TTITLE4=Ten Thousand Years - David Graze
TTITLE5=She Going Trugh My Change Of Life - James Segrest
TTITLE6=Ye Are The Light - Sandy Samplers
TTITLE7=What Gives Me The Strength - Sonny Leblanc
TTITLE8=I Let Our Love Slip Away - Phil Coley
TTITLE9=You Better Keep It Country - Kayla White
TTITLE10=Finf Some Good In Me - Ron Shaw
TTITLE11=Garbage Man - Hyde Brothers
TTITLE12=Hang Around Women - Ron Shaw
TTITLE13=Yellow Pages - Glynn Martin
TTITLE14=Sea Of A Cowboy Hats - Donna Kay-sea
TTITLE15=Back To The Country - Rockey Wimberly
TTITLE16=Too Much Thinking and Drinking - Joe Dynamicj
TTITLE17=She Knows - Mark Weathers
TTITLE18=Keep Rocking - Dusty Marie
TTITLE19=The Old Violin - James Segrest
EXTD=
EXTT0=
EXTT1=
EXTT2=
EXTT3=
EXTT4=
EXTT5=
EXTT6=
EXTT7=
EXTT8=
EXTT9=
EXTT10=
EXTT11=
EXTT12=
EXTT13=
EXTT14=
EXTT15=
EXTT16=
EXTT17=
EXTT18=
EXTT19=
PLAYORDER=
